<svg xmlns="http://www.w3.org/2000/svg" fill="none" viewBox="0 0 52 26">
  <path fill="#2B7FFF" d="M.48 0h4.208c.992 0 1.755.074 2.288.224.544.138.928.368 1.152.688.224.31.336.746.336 1.312v1.28c0 .288-.117.56-.352.816a1.73 1.73 0 0 1-.8.528v.08c.405.042.773.218 1.104.528.341.298.512.634.512 1.008v1.6c0 .842-.336 1.44-1.008 1.792-.672.352-1.712.528-3.12.528H.48V0Zm4.208 4.224c.395 0 .688-.032.88-.096.192-.064.32-.166.384-.304.075-.15.112-.363.112-.64v-.512c0-.246-.032-.427-.096-.544-.064-.128-.197-.219-.4-.272-.192-.054-.501-.08-.928-.08H2.976v2.448h1.712Zm.064 4.384c.608 0 1.04-.07 1.296-.208.256-.139.384-.363.384-.672v-.832c0-.384-.101-.656-.304-.816-.192-.16-.539-.24-1.04-.24H2.976v2.768h1.776Zm9.676 1.936c-2.741 0-4.112-.838-4.112-2.512V5.248c0-.97.31-1.675.928-2.112.63-.438 1.595-.656 2.896-.656 1.227 0 2.123.213 2.688.64.576.416.864 1.125.864 2.128v1.888h-5.024v.704c0 .448.16.768.48.96.32.192.896.288 1.728.288.768 0 1.632-.112 2.592-.336v1.488a14.54 14.54 0 0 1-3.04.304Zm1.04-4.736v-1.12a.629.629 0 0 0-.32-.576c-.203-.128-.55-.192-1.04-.192-.565 0-.944.064-1.136.192a.66.66 0 0 0-.304.576v1.12h2.8Zm6.202 4.736c-.726 0-1.27-.064-1.632-.192a1.315 1.315 0 0 1-.752-.72c-.14-.352-.208-.875-.208-1.568 0-.619.074-1.104.224-1.456.16-.352.41-.603.752-.752.352-.16.832-.24 1.44-.24h2.624v-.528c0-.33-.048-.576-.144-.736-.086-.16-.251-.272-.496-.336-.235-.064-.592-.096-1.072-.096-.662 0-1.568.064-2.72.192V2.64c.842-.107 1.829-.16 2.96-.16.992 0 1.754.074 2.288.224.544.15.933.405 1.168.768.234.362.352.89.352 1.584v5.328h-2.288V9.68a1.51 1.51 0 0 1-.736.656c-.31.139-.896.208-1.76.208Zm.912-1.456c.469 0 .805-.016 1.008-.048.149-.022.25-.054.304-.096a.47.47 0 0 0 .16-.208.694.694 0 0 0 .064-.336V6.896h-1.6c-.363 0-.62.026-.768.08a.434.434 0 0 0-.304.288c-.054.138-.08.39-.08.752 0 .352.026.597.08.736.053.138.154.23.304.272.16.042.437.064.832.064Zm8.615 1.456c-.992 0-1.69-.176-2.096-.528-.395-.363-.592-.928-.592-1.696V2.64h2.336V8c0 .298.027.522.08.672.064.15.181.256.352.32.181.064.453.096.816.096.458 0 .794-.027 1.008-.08.213-.064.357-.17.432-.32.075-.15.112-.379.112-.688V2.64h2.336v7.744h-2.304V9.44c-.17.736-.998 1.104-2.48 1.104Zm10.7 0c-.395 0-.726-.016-.992-.048a3.636 3.636 0 0 1-.8-.192 2.023 2.023 0 0 1-.736-.4 1.906 1.906 0 0 1-.449-.704 2.786 2.786 0 0 1-.192-1.072V4.08H37.16V2.64h1.569V.4h2.336v2.24h2.128v1.44h-2.128v3.648c0 .373.032.656.096.848a.679.679 0 0 0 .367.4c.182.074.46.112.833.112.149 0 .426-.027.832-.08v1.456c-.502.053-.934.08-1.296.08Zm4.835-.224-3.088-7.68h2.544l1.744 5.472 1.584-5.472h2.416l-4.24 11.072h-2.368l1.408-3.392ZM0 23.864l5.408-7.088H.16V15h8.32v1.504l-5.408 7.088h5.504v1.792H0v-1.52Zm13.893 1.68c-.48 0-.875-.016-1.184-.048a6.22 6.22 0 0 1-.992-.192c-.384-.107-.694-.256-.928-.448-.235-.203-.432-.486-.592-.848-.16-.352-.24-.779-.24-1.28V20.44c0-.512.08-.96.24-1.344.16-.384.368-.683.624-.896.224-.181.517-.33.88-.448a4.655 4.655 0 0 1 1.088-.24 21.21 21.21 0 0 1 1.104-.032c.49 0 .88.016 1.168.048.298.021.624.085.976.192.384.117.693.277.928.48.245.203.453.49.624.864.16.384.24.843.24 1.376v2.288c0 .48-.08.901-.24 1.264-.15.363-.347.645-.592.848-.214.181-.507.33-.88.448-.363.107-.72.176-1.072.208-.32.032-.704.048-1.152.048Zm0-1.456c.437 0 .768-.032.992-.096.224-.075.378-.187.464-.336.096-.15.144-.368.144-.656v-2.928c0-.427-.112-.726-.336-.896-.224-.17-.646-.256-1.264-.256-.619 0-1.04.085-1.264.256-.224.17-.336.47-.336.896V23c0 .288.042.506.128.656.096.15.256.261.48.336.224.064.554.096.992.096Zm5.756-6.448h2.304v.944c.182-.736 1.009-1.104 2.48-1.104.992 0 1.686.181 2.08.544.406.352.608.912.608 1.68v5.68h-2.335v-5.376c0-.299-.033-.523-.097-.672-.053-.15-.17-.256-.352-.32-.17-.064-.437-.096-.8-.096-.458 0-.794.032-1.008.096-.213.053-.357.155-.431.304-.075.15-.113.378-.113.688v5.376H19.65V17.64Zm13.404 7.904c-2.741 0-4.112-.838-4.112-2.512v-2.784c0-.97.31-1.675.928-2.112.63-.438 1.595-.656 2.896-.656 1.227 0 2.123.213 2.688.64.576.416.864 1.125.864 2.128v1.888h-5.024v.704c0 .448.16.768.48.96.32.192.896.288 1.728.288.768 0 1.632-.112 2.592-.336v1.488a14.54 14.54 0 0 1-3.04.304Zm1.04-4.736v-1.12a.629.629 0 0 0-.32-.576c-.203-.128-.55-.192-1.04-.192-.565 0-.944.064-1.136.192a.66.66 0 0 0-.304.576v1.12h2.8Z"/>
</svg>
